<?xml version="1.0" encoding="utf-8"?>
<!-- Generator: Adobe Illustrator 15.0.0, SVG Export Plug-In . SVG Version: 6.00 Build 0)  -->
<!DOCTYPE svg PUBLIC "-//W3C//DTD SVG 1.1//EN" "http://www.w3.org/Graphics/SVG/1.1/DTD/svg11.dtd">
<svg version="1.1" id="图层_1" xmlns="http://www.w3.org/2000/svg" xmlns:xlink="http://www.w3.org/1999/xlink" x="0px" y="0px"
	 width="91px" height="19.965px" viewBox="149.138 336.479 91 19.965" enable-background="new 149.138 336.479 91 19.965"
	 xml:space="preserve">
<g id="图层_x0020_1">
	<g id="_239166480">
		<path fill="#003399" d="M171.834,346.089v-0.453h5.472v0.453H171.834z M189.636,346.316v-0.084c0-0.313-0.057-0.512-0.113-0.568
			c-0.085-0.057-0.227-0.084-0.453-0.084h-0.426v-1.049h3.118v4.336c0,0.256,0.028,0.426,0.113,0.482
			c0.057,0.086,0.228,0.113,0.454,0.113h0.312v1.021h-3.997v-1.021h0.397c0.227,0,0.396-0.027,0.481-0.113
			c0.057-0.057,0.113-0.227,0.113-0.482V346.316z M179.261,350.484v-1.105h0.482c0.312,0,0.538-0.057,0.623-0.143
			c0.086-0.057,0.143-0.283,0.143-0.596v-4.789c0-0.342-0.057-0.539-0.143-0.625c-0.085-0.057-0.312-0.113-0.623-0.113h-0.482
			v-1.105h7.938v3.459h-1.105c-0.028-0.539-0.113-0.965-0.198-1.248c-0.085-0.311-0.228-0.539-0.426-0.709
			c-0.142-0.141-0.34-0.254-0.566-0.311s-0.681-0.086-1.361-0.086h-0.651v2.41h0.085c0.396,0,0.652-0.086,0.822-0.256
			c0.142-0.197,0.227-0.539,0.227-1.02v-0.057h1.077v3.855h-1.077c0-0.539-0.085-0.908-0.227-1.107
			c-0.142-0.197-0.369-0.311-0.737-0.311c-0.028,0-0.057,0-0.085,0c-0.057,0-0.085,0.027-0.085,0.027v1.984
			c0,0.313,0.028,0.512,0.113,0.596c0.113,0.086,0.312,0.143,0.652,0.143h0.538v1.105H179.261z M167.356,346.316v-0.084
			c0-0.313-0.057-0.512-0.113-0.568c-0.085-0.057-0.227-0.084-0.453-0.084h-0.426v-1.049h3.118v4.336
			c0,0.256,0.028,0.426,0.113,0.482c0.057,0.086,0.228,0.113,0.454,0.113h0.312v1.021h-3.997v-1.021h0.397
			c0.227,0,0.396-0.027,0.481-0.113c0.057-0.057,0.113-0.227,0.113-0.482V346.316z M156.244,350.484l-1.645-5.982
			c-0.17-0.594-0.312-0.992-0.481-1.133c-0.142-0.17-0.341-0.256-0.624-0.283v-1.078h3.799v1.078h-0.057
			c-0.228,0-0.397,0.027-0.511,0.084s-0.17,0.143-0.17,0.256c0,0.057,0.028,0.113,0.057,0.197c0,0.113,0.057,0.256,0.085,0.426
			l1.162,4.309l1.162-3.77c-0.113-0.596-0.255-0.992-0.396-1.191c-0.17-0.227-0.425-0.311-0.766-0.311v-1.078h3.969v1.078
			c-0.028,0-0.057,0-0.113,0c-0.028,0-0.085-0.029-0.17-0.029c-0.228,0-0.369,0.057-0.454,0.113s-0.113,0.17-0.113,0.313
			c0,0.057,0,0.113,0,0.17c0.028,0.057,0.028,0.113,0.057,0.199l1.105,4.506l1.19-4.479c0.028-0.084,0.057-0.17,0.057-0.227
			s0.028-0.113,0.028-0.17c0-0.143-0.085-0.256-0.198-0.313c-0.142-0.057-0.368-0.084-0.708-0.084v-1.078h3.118v1.078
			c-0.284,0-0.511,0.084-0.652,0.227c-0.142,0.141-0.283,0.396-0.368,0.766l-1.701,6.406h-2.239l-1.021-3.602l-1.049,3.602H156.244z
			"/>
		<path fill="#003399" d="M230.314,342.007v5.244l1.7-1.389c0.057-0.029,0.085-0.057,0.085-0.086
			c0.028-0.027,0.028-0.057,0.028-0.084c0-0.057-0.028-0.086-0.085-0.113c-0.057-0.029-0.142-0.029-0.255-0.029
			c-0.057,0-0.198,0-0.396,0c-0.085,0.029-0.142,0.029-0.199,0.029v-1.049h3.657v1.049c-0.028,0-0.057-0.029-0.085-0.029
			s-0.057,0-0.142,0c-0.17,0-0.341,0.029-0.511,0.086c-0.142,0.057-0.283,0.17-0.453,0.313l-0.794,0.65l1.417,2.381
			c0.085,0.172,0.199,0.313,0.341,0.369c0.113,0.086,0.283,0.113,0.453,0.113c0.057,0,0.113,0,0.142,0s0.057,0,0.085,0v1.021h-3.713
			v-1.021c0.283,0,0.425,0,0.481-0.027c0.057-0.029,0.085-0.086,0.085-0.143c0-0.084-0.028-0.17-0.085-0.313l0,0l-0.708-1.219
			l-1.049,0.852v0.283c0,0.227,0.057,0.396,0.113,0.482c0.057,0.057,0.17,0.084,0.34,0.084c0.028,0,0.057,0,0.085,0s0.057,0,0.085,0
			v1.021h-3.6v-1.021h0.283c0.255,0,0.425-0.027,0.511-0.113c0.057-0.084,0.085-0.227,0.085-0.453v-5.131
			c0-0.34-0.028-0.566-0.113-0.623c-0.058-0.086-0.228-0.113-0.454-0.113h-0.312v-1.021H230.314z M224.615,348.386h1.333
			c-0.058,0.736-0.284,1.303-0.737,1.699c-0.454,0.426-1.077,0.625-1.871,0.625c-0.992,0-1.758-0.283-2.296-0.852
			c-0.539-0.566-0.822-1.359-0.822-2.381c0-0.963,0.283-1.758,0.851-2.324c0.566-0.566,1.332-0.85,2.296-0.85
			c0.794,0,1.417,0.17,1.899,0.566c0.481,0.369,0.737,0.879,0.737,1.475c0,0.396-0.114,0.709-0.341,0.963
			c-0.255,0.227-0.566,0.34-0.936,0.34c-0.312,0-0.566-0.084-0.765-0.283c-0.199-0.17-0.284-0.426-0.284-0.736
			c0-0.283,0.085-0.51,0.256-0.68c0.17-0.172,0.396-0.229,0.68-0.229h0.028c-0.113-0.141-0.255-0.227-0.396-0.283
			c-0.113-0.057-0.283-0.084-0.454-0.084c-0.453,0-0.793,0.17-1.02,0.51c-0.199,0.369-0.341,0.879-0.341,1.559
			c0,0.738,0.113,1.248,0.313,1.588c0.17,0.369,0.481,0.539,0.85,0.539c0.341,0,0.567-0.113,0.737-0.313
			C224.502,349.066,224.587,348.753,224.615,348.386z M211.888,347.507c0-0.992,0.313-1.787,0.936-2.354
			c0.624-0.566,1.445-0.85,2.523-0.85c1.077,0,1.927,0.283,2.551,0.85c0.595,0.566,0.907,1.361,0.907,2.354
			s-0.313,1.758-0.907,2.324c-0.624,0.596-1.474,0.879-2.551,0.879c-1.078,0-1.899-0.283-2.523-0.879
			C212.2,349.265,211.888,348.5,211.888,347.507z M214.184,347.507c0,0.793,0.085,1.359,0.256,1.645
			c0.17,0.311,0.481,0.453,0.907,0.453c0.425,0,0.736-0.143,0.906-0.453c0.199-0.285,0.284-0.852,0.284-1.645
			c0-0.822-0.085-1.361-0.284-1.674c-0.17-0.311-0.481-0.453-0.906-0.453c-0.426,0-0.737,0.143-0.907,0.453
			C214.269,346.146,214.184,346.685,214.184,347.507z M209.649,342.007v6.859c0,0.256,0.028,0.426,0.113,0.482
			c0.057,0.086,0.227,0.113,0.454,0.113h0.34v1.021h-3.997v-1.021h0.341c0.255,0,0.425-0.027,0.481-0.113
			c0.085-0.057,0.113-0.227,0.113-0.482v-5.102c0-0.313-0.028-0.539-0.085-0.623c-0.057-0.057-0.227-0.113-0.481-0.113h-0.369
			v-1.021H209.649z M203.923,348.386h1.332c-0.057,0.736-0.283,1.303-0.737,1.699c-0.453,0.426-1.077,0.625-1.87,0.625
			c-0.992,0-1.758-0.283-2.297-0.852c-0.566-0.566-0.821-1.359-0.821-2.381c0-0.963,0.283-1.758,0.85-2.324
			c0.567-0.566,1.333-0.85,2.297-0.85c0.793,0,1.417,0.17,1.898,0.566c0.482,0.369,0.737,0.879,0.737,1.475
			c0,0.396-0.113,0.709-0.368,0.963c-0.228,0.227-0.539,0.34-0.907,0.34c-0.34,0-0.596-0.084-0.766-0.283
			c-0.198-0.17-0.283-0.426-0.283-0.736c0-0.283,0.085-0.51,0.227-0.68c0.17-0.172,0.425-0.229,0.709-0.229h0.028
			c-0.113-0.141-0.255-0.227-0.397-0.283c-0.142-0.057-0.283-0.084-0.453-0.084c-0.453,0-0.794,0.17-1.021,0.51
			c-0.227,0.369-0.34,0.879-0.34,1.559c0,0.738,0.113,1.248,0.283,1.588c0.198,0.369,0.481,0.539,0.879,0.539
			c0.34,0,0.566-0.113,0.736-0.313C203.81,349.066,203.895,348.753,203.923,348.386z"/>
		<path fill="#003399" d="M189.381,342.66c0.17-0.652,0.851-1.049,1.53-0.879c0.652,0.199,1.021,0.879,0.851,1.531
			s-0.851,1.049-1.53,0.85C189.579,343.992,189.211,343.312,189.381,342.66z"/>
		<path fill="#003399" d="M173.054,338.464c-1.305-1.332-3.062-2.012-4.678-1.984c-1.644-0.027-3.713,0.793-4.875,2.211l1.134,0.992
			c1.983-2.268,5.188-2.268,7.342-0.227L173.054,338.464z"/>
		<path d="M167.242,342.972c0-0.285,0.113-0.539,0.312-0.738c0.199-0.197,0.454-0.311,0.737-0.311s0.539,0.113,0.737,0.311
			c0.198,0.199,0.312,0.453,0.312,0.738c0,0.311-0.113,0.537-0.312,0.764c-0.198,0.199-0.454,0.285-0.737,0.285
			s-0.538-0.086-0.737-0.285C167.356,343.539,167.242,343.283,167.242,342.972z"/>
		<path fill="#FF0000" d="M167.101,342.66c0.17-0.652,0.851-1.049,1.53-0.879c0.652,0.199,1.021,0.879,0.851,1.531
			s-0.851,1.049-1.53,0.85C167.299,343.992,166.931,343.312,167.101,342.66z"/>
		<path fill="#003399" d="M171.579,340.619c-1.672-2.297-4.989-2.184-6.576,0.086l1.219,0.85c0.964-1.389,3.033-1.559,4.167-0.086
			L171.579,340.619z"/>
	</g>
</g>
</svg>
